# xmcd
#
# Track frame offsets: 
#        150
#        21123
#        35540
#        57276
#        80274
#        95938
#        123008
#        144236
#        162457
#        184864
#        205308
#        223026
#        236901
#        254931
#
# Disc length: 3735 seconds
#
# Revision: 0
# Processed by: cddbd v1.5.2PL0 Copyright (c) Steve Scherf et al.
# Submitted via: ExactAudioCopy v0.95b4
#
DISCID=d00e950e
DTITLE=Dan Seals - Jackpot, NV - April 14
DYEAR=2001
DGENRE=Country
TTITLE0=I'd Really Love To See You Tonight
TTITLE1=God Must Be A Cowboy
TTITLE2=Big Wheels In The Moonlight
TTITLE3=Still Reelin'
TTITLE4=Headin' West
TTITLE5=Car Talk
TTITLE6=My Old Yellow Car
TTITLE7=Love Is The Answer
TTITLE8=Good Times
TTITLE9=Sax Instrumental
TTITLE10=We Are One
TTITLE11=Three Times Loser
TTITLE12=Bop
TTITLE13=One Friend
EXTD=
EXTT0=
EXTT1=
EXTT2=
EXTT3=
EXTT4=
EXTT5=
EXTT6=
EXTT7=
EXTT8=
EXTT9=
EXTT10=
EXTT11=
EXTT12=
EXTT13=
PLAYORDER=
